# xmcd
#
# Track frame offsets:
#	150
#	16825
#	31460
#	46670
#	60470
#	75975
#	91517
#	106410
#	122760
#	137002
#	152727
#	166850
#	183070
#	197520
#	213805
#	228102
#	242405
#	256495
#	270780
#	284280
#	297410
#	310755
#	322605
#
# Disc length: 4482 seconds
#
# Revision: 0
# Processed by: cddbd v1.5.2PL0 Copyright (c) Steve Scherf et al.
# Submitted via: EasyCDDAExtractor 16.0.6.1
#
DISCID=11118017
DTITLE=Συλλογικός δίσκος - Κρήτη μου όμορφο νησί 5
DYEAR=1900
DGENRE=Παραδοσιακή
TTITLE0=Καραβίτης Αλέκος - Παγκρήτιος συρτός (Πρώτος) [παραδοσιακό]
TTITLE1=Άγνωστος - Πεντοζάλια χανιώτικα [παραδοσιακό]
TTITLE2=Καραβίτης Αλέκος-Τζούγανος Νίκος - Συρτός κουτρουλιανός [Αλέκος Καραβί
TTITLE2=της]
TTITLE3=Καραβίτης Αλέκος - Συρτό (Κανάρια μου)[Αλέκος Καραβίτης]
TTITLE4=Καραβίτης Αλέκος - Κονδυλιές λασηθιώτικες [παραδοσιακό]
TTITLE5=Καραβίτης Αλέκος - Σούστα ρεθυμνιώτικη [παραδοσιακό]
TTITLE6=Άγνωστος - Πεντοζάλια αμαριώτικα [παραδοσιακό]
TTITLE7=Άγνωστος - Συρτός Κισσάμου [παραδοσιακό]
TTITLE8=Τζούγανος Νίκος - Συρτός σφακιανός [παραδοσιακό]
TTITLE9=Καραβίτης Αλέκος - Αχτουδιανά πεντοζάλια [Αλέκος Καραβίτης]
TTITLE10=Καραβίτης Αλέκος - Σητιακές κοντυλιές [παραδοσιακό]
TTITLE11=Καραβίτης Αλέκος - Συρτός αποκορωνιώτκος [παραδοσιακό]
TTITLE12=Καραβίτης Αλέκος - Γιασεμάκι μου [Αλέκος Καραβίτης]
TTITLE13=Άγνωστος - Καστρινές κοντυλιές [παραδοσιακό]
TTITLE14=Πιπεράκης Χαρίλαος - Τι μού 'καμνε μιά χήρα [Χαρίλαος Πιπεράκης]
TTITLE15=Πιπεράκης Χαρίλαος - Σελινιώτικο συρτό [Χαρίλαος Πιπεράκης]
TTITLE16=Πιπεράκης Χαρίλαος - Ο ψύλλος έχει χάρη [Χαρίλαος Πιπεράκης]
TTITLE17=Πιπεράκης Χαρίλαος - Όταν γεράσει ο πετεινός οι κότες τον τσιμπούνε [
TTITLE17=Χ. Πιπεράκης]
TTITLE18=Πιπεράκης Χαρίλαος - Ξεροστεριανός [Χαρίλαος Πιπεράκης]
TTITLE19=Πιπεράκης Χαρίλαος - Το σαπουνάκι [Χαρίλαος Πιπεράκης]
TTITLE20=Πιπεράκης Χαρίλαος - Χθες βράδυ σ' είδα όνειρο [Χαρίλαος Πιπεράκης]
TTITLE21=Πιπεράκης Χαρίλαος - Απελπισμένος ήμουνα [Χαρίλαος Πιπεράκης]
TTITLE22=Πιπεράκης Χαρίλαος - Κρητικό βαρύ συρτό [Χαρίλαος Πιπεράκης]
EXTD=
EXTT0=
EXTT1=
EXTT2=
EXTT3=
EXTT4=
EXTT5=
EXTT6=
EXTT7=
EXTT8=
EXTT9=
EXTT10=
EXTT11=
EXTT12=
EXTT13=
EXTT14=
EXTT15=
EXTT16=
EXTT17=
EXTT18=
EXTT19=
EXTT20=
EXTT21=
EXTT22=
PLAYORDER=
